<?xml version="1.0" standalone="no"?>
<!DOCTYPE svg PUBLIC "-//W3C//DTD SVG 20010904//EN"
 "http://www.w3.org/TR/2001/REC-SVG-20010904/DTD/svg10.dtd">
<svg version="1.0" xmlns="http://www.w3.org/2000/svg"
 width="110.000000pt" height="110.000000pt" viewBox="0 0 110.000000 110.000000"
 preserveAspectRatio="xMidYMid meet">
<metadata>
Created by potrace 1.11, written by Peter Selinger 2001-2013
</metadata>
<g transform="translate(0.000000,110.000000) scale(0.100000,-0.100000)"
fill="#000000" stroke="none">
<path d="M489 1049 c-46 -25 -60 -39 -79 -80 -24 -50 -28 -53 -90 -63 -33 -6
-37 -10 -52 -59 l-15 -52 63 -123 c35 -67 64 -127 64 -132 0 -28 -44 -2 -114
69 -73 73 -81 79 -115 76 -20 -2 -44 -4 -53 -4 -20 -1 -52 -91 -45 -128 3 -19
-2 -33 -21 -52 -20 -19 -27 -37 -28 -68 -2 -52 0 -53 64 -88 28 -15 52 -31 52
-34 0 -3 -14 -23 -29 -44 -28 -36 -29 -41 -17 -75 9 -26 25 -44 51 -59 21 -11
52 -33 69 -49 17 -15 53 -36 79 -46 45 -17 51 -17 105 -2 55 16 91 37 139 83
22 21 48 28 55 14 14 -31 82 -76 141 -93 61 -17 71 -17 110 -4 23 8 58 28 77
45 19 16 52 39 73 50 60 32 74 94 32 143 -14 16 -25 32 -25 36 0 4 26 21 58
38 l58 31 -1 50 c0 41 -4 53 -27 70 -18 15 -25 27 -21 42 7 26 -17 130 -31
135 -6 2 -32 5 -57 7 l-47 5 -78 -79 c-71 -71 -114 -97 -114 -69 0 6 29 66 64
133 l63 122 -16 50 c-16 51 -23 56 -93 70 -20 4 -32 17 -49 54 -18 42 -31 55
-79 80 -32 17 -59 31 -61 31 -2 0 -29 -14 -60 -31z m106 -40 c31 -16 45 -34
64 -75 21 -48 27 -54 60 -59 50 -8 63 -17 74 -48 7 -22 -2 -46 -55 -150 -56
-110 -62 -128 -54 -156 8 -28 13 -31 49 -31 37 0 48 7 122 79 69 67 85 78 107
74 33 -6 50 -48 42 -106 -5 -38 -3 -44 24 -61 16 -11 28 -27 27 -35 -2 -9 -4
-22 -4 -29 -1 -7 -25 -24 -55 -39 -75 -36 -83 -58 -40 -107 48 -54 46 -63 -26
-110 -24 -16 -56 -40 -69 -53 -59 -54 -151 -38 -245 44 -33 29 -63 53 -66 53
-3 0 -30 -22 -60 -50 -61 -55 -133 -85 -185 -77 -19 3 -63 28 -100 56 -36 28
-70 51 -75 51 -5 0 -12 9 -15 21 -5 14 3 33 29 66 43 55 37 68 -41 107 -29 14
-54 30 -54 36 -1 5 -2 16 -3 23 -2 6 11 26 27 44 24 26 28 36 22 62 -4 17 -1
47 5 66 10 30 16 35 43 35 27 0 45 -13 107 -75 69 -69 78 -75 117 -75 40 0 42
2 48 34 6 29 -3 53 -55 155 -52 102 -60 125 -53 148 11 31 24 40 75 48 29 4
38 12 47 36 15 44 48 86 79 103 37 19 42 19 87 -5z"/>
</g>
</svg>
